<svg width="743" height="690" viewBox="0 0 743 690" fill="none" xmlns="http://www.w3.org/2000/svg">
<mask id="mask0_27_13638" style="mask-type:alpha" maskUnits="userSpaceOnUse" x="18" y="27" width="726" height="624">
<rect x="18.0721" y="27.0479" width="725" height="623" fill="#D9D9D9" style="fill:#D9D9D9;fill:color(display-p3 0.8510 0.8510 0.8510);fill-opacity:1;"/>
</mask>
<g mask="url(#mask0_27_13638)">
<g opacity="0.4">
<mask id="mask1_27_13638" style="mask-type:alpha" maskUnits="userSpaceOnUse" x="-29" y="-64" width="1227" height="755">
<path d="M1197.07 -63.9521L1197.07 690.048L-28.9274 690.048L-28.9274 -63.9522L1197.07 -63.9521Z" fill="url(#paint0_radial_27_13638)" style=""/>
</mask>
<g mask="url(#mask1_27_13638)">
<line x1="28.5726" y1="147.048" x2="28.5726" y2="1132.4" stroke="#E03131" style="stroke:#E03131;stroke:color(display-p3 0.8784 0.1922 0.1922);stroke-opacity:1;"/>
<line x1="76.5726" y1="147.048" x2="76.5726" y2="1132.4" stroke="#E03131" style="stroke:#E03131;stroke:color(display-p3 0.8784 0.1922 0.1922);stroke-opacity:1;"/>
<line x1="124.573" y1="147.048" x2="124.573" y2="1132.4" stroke="#E03131" style="stroke:#E03131;stroke:color(display-p3 0.8784 0.1922 0.1922);stroke-opacity:1;"/>
<line x1="172.573" y1="147.048" x2="172.573" y2="1132.4" stroke="#E03131" style="stroke:#E03131;stroke:color(display-p3 0.8784 0.1922 0.1922);stroke-opacity:1;"/>
<line x1="220.573" y1="147.048" x2="220.573" y2="1132.4" stroke="#E03131" style="stroke:#E03131;stroke:color(display-p3 0.8784 0.1922 0.1922);stroke-opacity:1;"/>
<line x1="268.573" y1="147.048" x2="268.573" y2="1132.4" stroke="#E03131" style="stroke:#E03131;stroke:color(display-p3 0.8784 0.1922 0.1922);stroke-opacity:1;"/>
<line x1="316.573" y1="147.048" x2="316.573" y2="1132.4" stroke="#E03131" style="stroke:#E03131;stroke:color(display-p3 0.8784 0.1922 0.1922);stroke-opacity:1;"/>
<line x1="364.573" y1="147.048" x2="364.573" y2="1132.4" stroke="#E03131" style="stroke:#E03131;stroke:color(display-p3 0.8784 0.1922 0.1922);stroke-opacity:1;"/>
<line x1="412.573" y1="147.048" x2="412.573" y2="1132.4" stroke="#E03131" style="stroke:#E03131;stroke:color(display-p3 0.8784 0.1922 0.1922);stroke-opacity:1;"/>
<line x1="460.573" y1="147.048" x2="460.573" y2="1132.4" stroke="#E03131" style="stroke:#E03131;stroke:color(display-p3 0.8784 0.1922 0.1922);stroke-opacity:1;"/>
<line x1="508.573" y1="147.048" x2="508.573" y2="1132.4" stroke="#E03131" style="stroke:#E03131;stroke:color(display-p3 0.8784 0.1922 0.1922);stroke-opacity:1;"/>
<line x1="556.573" y1="147.048" x2="556.573" y2="1132.4" stroke="#E03131" style="stroke:#E03131;stroke:color(display-p3 0.8784 0.1922 0.1922);stroke-opacity:1;"/>
<line x1="604.573" y1="147.048" x2="604.573" y2="1132.4" stroke="#E03131" style="stroke:#E03131;stroke:color(display-p3 0.8784 0.1922 0.1922);stroke-opacity:1;"/>
<line x1="652.573" y1="147.048" x2="652.573" y2="1132.4" stroke="#E03131" style="stroke:#E03131;stroke:color(display-p3 0.8784 0.1922 0.1922);stroke-opacity:1;"/>
<line x1="700.573" y1="147.048" x2="700.573" y2="1132.4" stroke="#E03131" style="stroke:#E03131;stroke:color(display-p3 0.8784 0.1922 0.1922);stroke-opacity:1;"/>
<line x1="897.897" y1="191.5" x2="-87.4523" y2="191.5" stroke="#E03131" style="stroke:#E03131;stroke:color(display-p3 0.8784 0.1922 0.1922);stroke-opacity:1;"/>
<line x1="897.897" y1="239.5" x2="-87.4523" y2="239.5" stroke="#E03131" style="stroke:#E03131;stroke:color(display-p3 0.8784 0.1922 0.1922);stroke-opacity:1;"/>
<line x1="897.897" y1="287.5" x2="-87.4523" y2="287.5" stroke="#E03131" style="stroke:#E03131;stroke:color(display-p3 0.8784 0.1922 0.1922);stroke-opacity:1;"/>
<line x1="897.897" y1="335.5" x2="-87.4523" y2="335.5" stroke="#E03131" style="stroke:#E03131;stroke:color(display-p3 0.8784 0.1922 0.1922);stroke-opacity:1;"/>
<line x1="897.897" y1="383.5" x2="-87.4523" y2="383.5" stroke="#E03131" style="stroke:#E03131;stroke:color(display-p3 0.8784 0.1922 0.1922);stroke-opacity:1;"/>
<line x1="897.897" y1="431.5" x2="-87.4523" y2="431.5" stroke="#E03131" style="stroke:#E03131;stroke:color(display-p3 0.8784 0.1922 0.1922);stroke-opacity:1;"/>
<line x1="897.897" y1="479.5" x2="-87.4523" y2="479.5" stroke="#E03131" style="stroke:#E03131;stroke:color(display-p3 0.8784 0.1922 0.1922);stroke-opacity:1;"/>
<line x1="897.897" y1="527.5" x2="-87.4523" y2="527.5" stroke="#E03131" style="stroke:#E03131;stroke:color(display-p3 0.8784 0.1922 0.1922);stroke-opacity:1;"/>
<line x1="897.897" y1="575.5" x2="-87.4523" y2="575.5" stroke="#E03131" style="stroke:#E03131;stroke:color(display-p3 0.8784 0.1922 0.1922);stroke-opacity:1;"/>
<line x1="897.897" y1="623.5" x2="-87.4523" y2="623.5" stroke="#E03131" style="stroke:#E03131;stroke:color(display-p3 0.8784 0.1922 0.1922);stroke-opacity:1;"/>
</g>
</g>
</g>
<mask id="mask2_27_13638" style="mask-type:alpha" maskUnits="userSpaceOnUse" x="0" y="0" width="742" height="690">
<rect x="0.547852" y="0.399414" width="741" height="689" fill="url(#paint1_linear_27_13638)" style=""/>
</mask>
<g mask="url(#mask2_27_13638)">
<path d="M834.841 191.941H652.426C599.552 191.941 556.69 234.804 556.69 287.678V287.678V356.245" stroke="#E03131" style="stroke:#E03131;stroke:color(display-p3 0.8784 0.1922 0.1922);stroke-opacity:1;" stroke-width="4" stroke-linecap="round" stroke-linejoin="round"/>
<path d="M317.159 243.048V243.048C317.159 256.303 306.414 267.048 293.159 267.048V267.048" stroke="#E03131" style="stroke:#E03131;stroke:color(display-p3 0.8784 0.1922 0.1922);stroke-opacity:1;" stroke-width="4"/>
<path d="M317.159 339.048V339.048C317.159 352.303 306.414 363.048 293.159 363.048V363.048" stroke="#E03131" style="stroke:#E03131;stroke:color(display-p3 0.8784 0.1922 0.1922);stroke-opacity:1;" stroke-width="4"/>
<path d="M269.159 387.048V387.048C269.159 373.793 279.904 363.048 293.159 363.048V363.048" stroke="#E03131" style="stroke:#E03131;stroke:color(display-p3 0.8784 0.1922 0.1922);stroke-opacity:1;" stroke-width="4"/>
<path d="M317.159 339.048V339.048C317.159 325.793 306.414 315.048 293.159 315.048V315.048" stroke="#E03131" style="stroke:#E03131;stroke:color(display-p3 0.8784 0.1922 0.1922);stroke-opacity:1;" stroke-width="4"/>
<path d="M269.159 291.048V291.048C269.159 277.793 279.904 267.048 293.159 267.048V267.048" stroke="#E03131" style="stroke:#E03131;stroke:color(display-p3 0.8784 0.1922 0.1922);stroke-opacity:1;" stroke-width="4"/>
<path d="M293.159 315.048V315.048C279.904 315.048 269.159 304.303 269.159 291.048V291.048" stroke="#E03131" style="stroke:#E03131;stroke:color(display-p3 0.8784 0.1922 0.1922);stroke-opacity:1;" stroke-width="4"/>
<path d="M317.159 434.048V434.048C317.159 420.793 306.414 410.048 293.159 410.048V410.048" stroke="#E03131" style="stroke:#E03131;stroke:color(display-p3 0.8784 0.1922 0.1922);stroke-opacity:1;" stroke-width="4"/>
<path d="M293.159 410.048V410.048C279.904 410.048 269.159 399.303 269.159 386.048V386.048" stroke="#E03131" style="stroke:#E03131;stroke:color(display-p3 0.8784 0.1922 0.1922);stroke-opacity:1;" stroke-width="4"/>
<circle opacity="0.1" cx="748.311" cy="385.007" r="144.5" fill="#E03131" style="fill:#E03131;fill:color(display-p3 0.8784 0.1922 0.1922);fill-opacity:1;"/>
<path d="M460.831 383.007L556.422 383.007" stroke="#E03131" style="stroke:#E03131;stroke:color(display-p3 0.8784 0.1922 0.1922);stroke-opacity:1;" stroke-width="4" stroke-linecap="round" stroke-dasharray="4 8"/>
<path d="M508.831 192L648.249 192" stroke="#E03131" style="stroke:#E03131;stroke:color(display-p3 0.8784 0.1922 0.1922);stroke-opacity:1;" stroke-width="4" stroke-linecap="round" stroke-dasharray="4 8"/>
<path d="M316.627 432.029V527.803" stroke="#E03131" style="stroke:#E03131;stroke:color(display-p3 0.8784 0.1922 0.1922);stroke-opacity:1;" stroke-width="4" stroke-linecap="round" stroke-dasharray="4 8"/>
<path d="M460 385L460 622.832" stroke="#E03131" style="stroke:#E03131;stroke:color(display-p3 0.8784 0.1922 0.1922);stroke-opacity:1;" stroke-width="4" stroke-linecap="round" stroke-dasharray="4 8"/>
<path d="M556.422 373.007L556.422 393.007" stroke="#E03131" style="stroke:#E03131;stroke:color(display-p3 0.8784 0.1922 0.1922);stroke-opacity:1;" stroke-width="4" stroke-linecap="round"/>
<path d="M470 624.048L450 624.048" stroke="#E03131" style="stroke:#E03131;stroke:color(display-p3 0.8784 0.1922 0.1922);stroke-opacity:1;" stroke-width="4" stroke-linecap="round"/>
<path d="M124 230.141L124 250.141" stroke="#E03131" style="stroke:#E03131;stroke:color(display-p3 0.8784 0.1922 0.1922);stroke-opacity:1;" stroke-width="4" stroke-linecap="round"/>
<path d="M364.548 422L364.548 442" stroke="#E03131" style="stroke:#E03131;stroke:color(display-p3 0.8784 0.1922 0.1922);stroke-opacity:1;" stroke-width="4" stroke-linecap="round"/>
<ellipse cx="14.5" cy="14.5" rx="14.5" ry="14.5" transform="matrix(4.37114e-08 -1 -1 -4.37114e-08 474.831 397.007)" fill="#FF0000" fill-opacity="0.12" style="fill:#FF0000;fill:color(display-p3 1.0000 0.0000 0.0000);fill-opacity:0.12;"/>
<path d="M460.331 373.007C455.084 373.007 450.831 377.26 450.831 382.507C450.831 387.754 455.084 392.007 460.331 392.007C465.578 392.007 469.831 387.754 469.831 382.507C469.831 377.26 465.578 373.007 460.331 373.007Z" fill="white" stroke="#E03131" style="fill:white;fill-opacity:1;stroke:#E03131;stroke:color(display-p3 0.8784 0.1922 0.1922);stroke-opacity:1;" stroke-width="4"/>
<rect width="29" height="29" rx="6" transform="matrix(0.707107 -0.707107 -0.707107 -0.707107 507.75 212.006)" fill="#FF0000" fill-opacity="0.12" style="fill:#FF0000;fill:color(display-p3 1.0000 0.0000 0.0000);fill-opacity:0.12;"/>
<rect x="2.38419e-07" y="-2.82843" width="19" height="19" rx="2" transform="matrix(0.707107 -0.707107 -0.707107 -0.707107 505.75 202.935)" fill="white" stroke="#E03131" style="fill:white;fill-opacity:1;stroke:#E03131;stroke:color(display-p3 0.8784 0.1922 0.1922);stroke-opacity:1;" stroke-width="4"/>
</g>
<g clip-path="url(#clip0_27_13638)">
<circle opacity="0.1" cx="316" cy="239" r="48" fill="#E03131" style="fill:#E03131;fill:color(display-p3 0.8784 0.1922 0.1922);fill-opacity:1;"/>
</g>
<path d="M124.152 239.743L365.038 239.743L412.108 239.403C438.532 239.212 460.054 260.579 460.054 287.004V287.004C460.054 287.852 460.742 288.54 461.59 288.54L777.4 288.54" stroke="#E03131" style="stroke:#E03131;stroke:color(display-p3 0.8784 0.1922 0.1922);stroke-opacity:1;" stroke-width="4" stroke-linecap="round"/>
<path d="M556.498 624.127H772.575" stroke="#E03131" style="stroke:#E03131;stroke:color(display-p3 0.8784 0.1922 0.1922);stroke-opacity:1;" stroke-width="4" stroke-linecap="round" stroke-linejoin="round"/>
<path d="M220.836 528.222H604.636L755.561 377.297" stroke="#E03131" style="stroke:#E03131;stroke:color(display-p3 0.8784 0.1922 0.1922);stroke-opacity:1;" stroke-width="4" stroke-linecap="round"/>
<path d="M364.384 431.996H173.843V431.996C173.843 379.018 130.323 336.071 77.3447 336.071V336.071" stroke="#E03131" style="stroke:#E03131;stroke:color(display-p3 0.8784 0.1922 0.1922);stroke-opacity:1;" stroke-width="4" stroke-linecap="round" stroke-linejoin="round"/>
<ellipse cx="14.5" cy="14.5" rx="14.5" ry="14.5" transform="matrix(4.37114e-08 -1 -1 -4.37114e-08 331.5 253.899)" fill="#FF0000" fill-opacity="0.12" style="fill:#FF0000;fill:color(display-p3 1.0000 0.0000 0.0000);fill-opacity:0.12;"/>
<ellipse cx="11.5" cy="11.5" rx="11.5" ry="11.5" transform="matrix(4.37114e-08 -1 -1 -4.37114e-08 328.5 250.899)" fill="#E03131" style="fill:#E03131;fill:color(display-p3 0.8784 0.1922 0.1922);fill-opacity:1;"/>
<path d="M231.597 519.269C231.597 515.42 227.43 513.014 224.097 514.938L207.939 524.267C204.606 526.191 204.606 531.003 207.939 532.927L224.097 542.256C227.43 544.18 231.597 541.775 231.597 537.926L231.597 519.269Z" fill="#FF0000" fill-opacity="0.12" style="fill:#FF0000;fill:color(display-p3 1.0000 0.0000 0.0000);fill-opacity:0.12;"/>
<path d="M226.647 519.19L210.588 528.462L226.647 537.734L226.647 519.19Z" fill="white" stroke="#E03131" style="fill:white;fill-opacity:1;stroke:#E03131;stroke:color(display-p3 0.8784 0.1922 0.1922);stroke-opacity:1;" stroke-width="4"/>
<path d="M567.258 615.173C567.258 611.324 563.092 608.919 559.758 610.843L543.601 620.172C540.267 622.096 540.267 626.908 543.601 628.832L559.758 638.161C563.092 640.085 567.258 637.68 567.258 633.831L567.258 615.173Z" fill="#FF0000" fill-opacity="0.12" style="fill:#FF0000;fill:color(display-p3 1.0000 0.0000 0.0000);fill-opacity:0.12;"/>
<path d="M562.308 615.095L546.249 624.367L562.308 633.638L562.308 615.095Z" fill="white" stroke="#E03131" style="fill:white;fill-opacity:1;stroke:#E03131;stroke:color(display-p3 0.8784 0.1922 0.1922);stroke-opacity:1;" stroke-width="4"/>
<path d="M84.7607 326.446C84.7607 322.597 80.594 320.191 77.2607 322.116L61.103 331.444C57.7697 333.369 57.7697 338.18 61.103 340.104L77.2607 349.433C80.594 351.358 84.7606 348.952 84.7606 345.103L84.7607 326.446Z" fill="#FF0000" fill-opacity="0.12" style="fill:#FF0000;fill:color(display-p3 1.0000 0.0000 0.0000);fill-opacity:0.12;"/>
<path d="M81.8106 326.367C81.8106 324.828 80.1439 323.866 78.8106 324.635L62.7515 333.907C61.4181 334.677 61.4181 336.601 62.7515 337.371L78.8106 346.643C80.1439 347.413 81.8106 346.45 81.8106 344.911L81.8106 326.367Z" fill="#E03131" style="fill:#E03131;fill:color(display-p3 0.8784 0.1922 0.1922);fill-opacity:1;"/>
<path d="M710.761 183.046C710.761 179.197 706.594 176.792 703.261 178.716L687.103 188.045C683.77 189.969 683.77 194.781 687.103 196.705L703.261 206.034C706.594 207.958 710.761 205.553 710.761 201.704L710.761 183.046Z" fill="#FF0000" fill-opacity="0.12" style="fill:#FF0000;fill:color(display-p3 1.0000 0.0000 0.0000);fill-opacity:0.12;"/>
<path d="M707.811 182.968C707.811 181.428 706.144 180.466 704.811 181.236L688.751 190.508C687.418 191.277 687.418 193.202 688.751 193.972L704.811 203.243C706.144 204.013 707.811 203.051 707.811 201.511L707.811 182.968Z" fill="#E03131" style="fill:#E03131;fill:color(display-p3 0.8784 0.1922 0.1922);fill-opacity:1;"/>
<rect opacity="0.1" x="426.912" y="493.656" width="67.1754" height="67.8825" rx="10" fill="#E03131" style="fill:#E03131;fill:color(display-p3 0.8784 0.1922 0.1922);fill-opacity:1;"/>
<rect width="29" height="29" rx="6" transform="matrix(4.37114e-08 -1 -1 -4.37114e-08 474.5 541.597)" fill="#FF0000" fill-opacity="0.12" style="fill:#FF0000;fill:color(display-p3 1.0000 0.0000 0.0000);fill-opacity:0.12;"/>
<rect x="-2" y="-2" width="19" height="19" rx="2" transform="matrix(4.37114e-08 -1 -1 -4.37114e-08 467.5 534.597)" fill="white" stroke="#E03131" style="fill:white;fill-opacity:1;stroke:#E03131;stroke:color(display-p3 0.8784 0.1922 0.1922);stroke-opacity:1;" stroke-width="4"/>
<rect opacity="0.1" x="172.544" y="383.847" width="67.1754" height="67.8825" rx="10" transform="rotate(45 172.544 383.847)" fill="#E03131" style="fill:#E03131;fill:color(display-p3 0.8784 0.1922 0.1922);fill-opacity:1;"/>
<ellipse cx="14.5" cy="14.5" rx="14.5" ry="14.5" transform="matrix(4.37114e-08 -1 -1 -4.37114e-08 691 638.127)" fill="#FF0000" fill-opacity="0.12" style="fill:#FF0000;fill:color(display-p3 1.0000 0.0000 0.0000);fill-opacity:0.12;"/>
<path d="M676.5 614.127C671.253 614.127 667 618.38 667 623.627C667 628.874 671.253 633.127 676.5 633.127C681.747 633.127 686 628.874 686 623.627C686 618.38 681.747 614.127 676.5 614.127Z" fill="white" stroke="#E03131" style="fill:white;fill-opacity:1;stroke:#E03131;stroke:color(display-p3 0.8784 0.1922 0.1922);stroke-opacity:1;" stroke-width="4"/>
<defs>
<radialGradient id="paint0_radial_27_13638" cx="0" cy="0" r="1" gradientUnits="userSpaceOnUse" gradientTransform="translate(411.071 353.048) rotate(90.0998) scale(287 466.661)">
<stop stop-color="white" style="stop-color:white;stop-opacity:1;"/>
<stop offset="1" stop-color="white" stop-opacity="0" style="stop-color:none;stop-opacity:0;"/>
</radialGradient>
<linearGradient id="paint1_linear_27_13638" x1="741.548" y1="84" x2="689.548" y2="84" gradientUnits="userSpaceOnUse">
<stop stop-color="white" stop-opacity="0" style="stop-color:none;stop-opacity:0;"/>
<stop offset="1" stop-color="white" style="stop-color:white;stop-opacity:1;"/>
</linearGradient>
<clipPath id="clip0_27_13638">
<rect width="96" height="96" fill="white" style="fill:white;fill-opacity:1;" transform="translate(268 191)"/>
</clipPath>
</defs>
</svg>
