<svg width="506" height="690" viewBox="0 0 506 690" fill="none" xmlns="http://www.w3.org/2000/svg">
<mask id="mask0_27_17459" style="mask-type:alpha" maskUnits="userSpaceOnUse" x="2" y="0" width="504" height="689">
<rect width="503" height="689" transform="matrix(-1 0 0 1 505.274 0)" fill="#D9D9D9" style="fill:#D9D9D9;fill:color(display-p3 0.8510 0.8510 0.8510);fill-opacity:1;"/>
</mask>
<g mask="url(#mask0_27_17459)">
<g opacity="0.4">
<mask id="mask1_27_17459" style="mask-type:alpha" maskUnits="userSpaceOnUse" x="0" y="-179" width="360" height="911">
<path d="M359.274 -179L359.274 732L0.274159 732L0.274199 -179L359.274 -179Z" fill="url(#paint0_radial_27_17459)" style=""/>
</mask>
<g mask="url(#mask1_27_17459)">
<line y1="-0.5" x2="985.349" y2="-0.5" transform="matrix(1.76828e-08 1 1 -1.08052e-07 326.272 147.002)" stroke="#E03131" style="stroke:#E03131;stroke:color(display-p3 0.8784 0.1922 0.1922);stroke-opacity:1;"/>
<line y1="-0.5" x2="985.349" y2="-0.5" transform="matrix(1.76828e-08 1 1 -1.08052e-07 278.272 147.002)" stroke="#E03131" style="stroke:#E03131;stroke:color(display-p3 0.8784 0.1922 0.1922);stroke-opacity:1;"/>
<line y1="-0.5" x2="985.349" y2="-0.5" transform="matrix(1.76828e-08 1 1 -1.08052e-07 230.272 147.002)" stroke="#E03131" style="stroke:#E03131;stroke:color(display-p3 0.8784 0.1922 0.1922);stroke-opacity:1;"/>
<line y1="-0.5" x2="985.349" y2="-0.5" transform="matrix(1.76828e-08 1 1 -1.08052e-07 182.272 147.002)" stroke="#E03131" style="stroke:#E03131;stroke:color(display-p3 0.8784 0.1922 0.1922);stroke-opacity:1;"/>
<line y1="-0.5" x2="985.349" y2="-0.5" transform="matrix(1.76828e-08 1 1 -1.08052e-07 134.272 147.002)" stroke="#E03131" style="stroke:#E03131;stroke:color(display-p3 0.8784 0.1922 0.1922);stroke-opacity:1;"/>
<line y1="-0.5" x2="985.349" y2="-0.5" transform="matrix(1.76828e-08 1 1 -1.08052e-07 86.2725 147.002)" stroke="#E03131" style="stroke:#E03131;stroke:color(display-p3 0.8784 0.1922 0.1922);stroke-opacity:1;"/>
<line y1="-0.5" x2="985.349" y2="-0.5" transform="matrix(1.76828e-08 1 1 -1.08052e-07 38.2725 147.002)" stroke="#E03131" style="stroke:#E03131;stroke:color(display-p3 0.8784 0.1922 0.1922);stroke-opacity:1;"/>
<line y1="-0.5" x2="985.349" y2="-0.5" transform="matrix(1 -6.13942e-08 -1.51764e-07 -1 -159.071 191.002)" stroke="#E03131" style="stroke:#E03131;stroke:color(display-p3 0.8784 0.1922 0.1922);stroke-opacity:1;"/>
<line y1="-0.5" x2="985.349" y2="-0.5" transform="matrix(1 -6.13942e-08 -1.51764e-07 -1 -159.071 239.002)" stroke="#E03131" style="stroke:#E03131;stroke:color(display-p3 0.8784 0.1922 0.1922);stroke-opacity:1;"/>
<line y1="-0.5" x2="985.349" y2="-0.5" transform="matrix(1 -6.13942e-08 -1.51764e-07 -1 -159.071 287.002)" stroke="#E03131" style="stroke:#E03131;stroke:color(display-p3 0.8784 0.1922 0.1922);stroke-opacity:1;"/>
<line y1="-0.5" x2="985.349" y2="-0.5" transform="matrix(1 -6.13942e-08 -1.51764e-07 -1 -159.071 335.002)" stroke="#E03131" style="stroke:#E03131;stroke:color(display-p3 0.8784 0.1922 0.1922);stroke-opacity:1;"/>
<line y1="-0.5" x2="985.349" y2="-0.5" transform="matrix(1 -6.13942e-08 -1.51764e-07 -1 -159.071 383.002)" stroke="#E03131" style="stroke:#E03131;stroke:color(display-p3 0.8784 0.1922 0.1922);stroke-opacity:1;"/>
<line y1="-0.5" x2="985.349" y2="-0.5" transform="matrix(1 -6.13942e-08 -1.51764e-07 -1 -159.071 431.002)" stroke="#E03131" style="stroke:#E03131;stroke:color(display-p3 0.8784 0.1922 0.1922);stroke-opacity:1;"/>
<line y1="-0.5" x2="985.349" y2="-0.5" transform="matrix(1 -6.13942e-08 -1.51764e-07 -1 -159.071 479.002)" stroke="#E03131" style="stroke:#E03131;stroke:color(display-p3 0.8784 0.1922 0.1922);stroke-opacity:1;"/>
<line y1="-0.5" x2="985.349" y2="-0.5" transform="matrix(1 -6.13942e-08 -1.51764e-07 -1 -159.071 527.002)" stroke="#E03131" style="stroke:#E03131;stroke:color(display-p3 0.8784 0.1922 0.1922);stroke-opacity:1;"/>
<line y1="-0.5" x2="985.349" y2="-0.5" transform="matrix(1 -6.13942e-08 -1.51764e-07 -1 -159.071 575.002)" stroke="#E03131" style="stroke:#E03131;stroke:color(display-p3 0.8784 0.1922 0.1922);stroke-opacity:1;"/>
<line y1="-0.5" x2="985.349" y2="-0.5" transform="matrix(1 -6.13942e-08 -1.51764e-07 -1 -159.071 623.002)" stroke="#E03131" style="stroke:#E03131;stroke:color(display-p3 0.8784 0.1922 0.1922);stroke-opacity:1;"/>
<line y1="-0.5" x2="985.349" y2="-0.5" transform="matrix(1 -6.13942e-08 -1.51764e-07 -1 -159.071 671.002)" stroke="#E03131" style="stroke:#E03131;stroke:color(display-p3 0.8784 0.1922 0.1922);stroke-opacity:1;"/>
<line y1="-0.5" x2="985.349" y2="-0.5" transform="matrix(1.76828e-08 1 1 -1.08052e-07 326.274 -428.998)" stroke="#E03131" style="stroke:#E03131;stroke:color(display-p3 0.8784 0.1922 0.1922);stroke-opacity:1;"/>
<line y1="-0.5" x2="985.349" y2="-0.5" transform="matrix(1.76828e-08 1 1 -1.08052e-07 278.274 -428.998)" stroke="#E03131" style="stroke:#E03131;stroke:color(display-p3 0.8784 0.1922 0.1922);stroke-opacity:1;"/>
<line y1="-0.5" x2="985.349" y2="-0.5" transform="matrix(1.76828e-08 1 1 -1.08052e-07 230.274 -428.998)" stroke="#E03131" style="stroke:#E03131;stroke:color(display-p3 0.8784 0.1922 0.1922);stroke-opacity:1;"/>
<line y1="-0.5" x2="985.349" y2="-0.5" transform="matrix(1.76828e-08 1 1 -1.08052e-07 182.274 -428.998)" stroke="#E03131" style="stroke:#E03131;stroke:color(display-p3 0.8784 0.1922 0.1922);stroke-opacity:1;"/>
<line y1="-0.5" x2="985.349" y2="-0.5" transform="matrix(1.76828e-08 1 1 -1.08052e-07 134.274 -428.998)" stroke="#E03131" style="stroke:#E03131;stroke:color(display-p3 0.8784 0.1922 0.1922);stroke-opacity:1;"/>
<line y1="-0.5" x2="985.349" y2="-0.5" transform="matrix(1.76828e-08 1 1 -1.08052e-07 86.2744 -428.998)" stroke="#E03131" style="stroke:#E03131;stroke:color(display-p3 0.8784 0.1922 0.1922);stroke-opacity:1;"/>
<line y1="-0.5" x2="985.349" y2="-0.5" transform="matrix(1.76828e-08 1 1 -1.08052e-07 38.2744 -428.998)" stroke="#E03131" style="stroke:#E03131;stroke:color(display-p3 0.8784 0.1922 0.1922);stroke-opacity:1;"/>
<line y1="-0.5" x2="985.349" y2="-0.5" transform="matrix(1 -6.13942e-08 -1.51764e-07 -1 -159.071 -0.998047)" stroke="#E03131" style="stroke:#E03131;stroke:color(display-p3 0.8784 0.1922 0.1922);stroke-opacity:1;"/>
<line y1="-0.5" x2="985.349" y2="-0.5" transform="matrix(1 -6.13942e-08 -1.51764e-07 -1 -159.071 47.002)" stroke="#E03131" style="stroke:#E03131;stroke:color(display-p3 0.8784 0.1922 0.1922);stroke-opacity:1;"/>
<line y1="-0.5" x2="985.349" y2="-0.5" transform="matrix(1 -6.13942e-08 -1.51764e-07 -1 -159.071 95.002)" stroke="#E03131" style="stroke:#E03131;stroke:color(display-p3 0.8784 0.1922 0.1922);stroke-opacity:1;"/>
<line y1="-0.5" x2="985.349" y2="-0.5" transform="matrix(1 -6.13942e-08 -1.51764e-07 -1 -159.071 143.002)" stroke="#E03131" style="stroke:#E03131;stroke:color(display-p3 0.8784 0.1922 0.1922);stroke-opacity:1;"/>
<line y1="-0.5" x2="985.349" y2="-0.5" transform="matrix(1 -6.13942e-08 -1.51764e-07 -1 -159.071 191.002)" stroke="#E03131" style="stroke:#E03131;stroke:color(display-p3 0.8784 0.1922 0.1922);stroke-opacity:1;"/>
</g>
</g>
</g>
<path d="M-136.327 461.995L-102.006 427.673L-35.3044 360.001L37.5613 287.135L133.803 287.135" stroke="#E03131" style="stroke:#E03131;stroke:color(display-p3 0.8784 0.1922 0.1922);stroke-opacity:1;" stroke-width="4" stroke-linecap="round"/>
<rect opacity="0.1" x="134.053" y="239.385" width="67.1754" height="67.8825" rx="10" transform="rotate(45 134.053 239.385)" fill="#E03131" style="fill:#E03131;fill:color(display-p3 0.8784 0.1922 0.1922);fill-opacity:1;"/>
<rect width="29" height="29" rx="6" transform="matrix(0.707107 -0.707107 -0.707107 -0.707107 133.303 307.141)" fill="#FF0000" fill-opacity="0.12" style="fill:#FF0000;fill:color(display-p3 1.0000 0.0000 0.0000);fill-opacity:0.12;"/>
<rect x="2.38419e-07" y="-2.82843" width="19" height="19" rx="2" transform="matrix(0.707107 -0.707107 -0.707107 -0.707107 131.303 298.07)" fill="white" stroke="#E03131" style="fill:white;fill-opacity:1;stroke:#E03131;stroke:color(display-p3 0.8784 0.1922 0.1922);stroke-opacity:1;" stroke-width="4"/>
<path d="M-9.78817 431.995L85.8031 431.995" stroke="#E03131" style="stroke:#E03131;stroke:color(display-p3 0.8784 0.1922 0.1922);stroke-opacity:1;" stroke-width="4" stroke-linecap="round" stroke-dasharray="4 8"/>
<path d="M85.8032 421.995L85.8032 441.995" stroke="#E03131" style="stroke:#E03131;stroke:color(display-p3 0.8784 0.1922 0.1922);stroke-opacity:1;" stroke-width="4" stroke-linecap="round"/>
<defs>
<radialGradient id="paint0_radial_27_17459" cx="0" cy="0" r="1" gradientUnits="userSpaceOnUse" gradientTransform="translate(129.115 324.829) rotate(90.0242) scale(346.76 136.649)">
<stop stop-color="white" style="stop-color:white;stop-opacity:1;"/>
<stop offset="1" stop-color="white" stop-opacity="0" style="stop-color:none;stop-opacity:0;"/>
</radialGradient>
</defs>
</svg>
